<?xml version="1.0" encoding="utf-8"?>
<!-- Generator: Adobe Illustrator 17.0.2, SVG Export Plug-In . SVG Version: 6.00 Build 0)  -->
<!DOCTYPE svg PUBLIC "-//W3C//DTD SVG 1.1//EN" "http://www.w3.org/Graphics/SVG/1.1/DTD/svg11.dtd">
<svg version="1.1" id="Layer_1" xmlns="http://www.w3.org/2000/svg" xmlns:xlink="http://www.w3.org/1999/xlink" x="0px" y="0px"
	 width="480px" height="480px" viewBox="0 0 480 480" enable-background="new 0 0 480 480" xml:space="preserve">
<circle id="XMLID_85_" fill="#AC2743" stroke="#414042" stroke-width="4" stroke-miterlimit="10" cx="228.75" cy="247.969" r="182.906"/>
<path id="XMLID_84_" fill="#C13356" d="M400.781,249.281c0,91.688-51.562,157.594-144.375,170.625
	C164.344,432.75,64.219,340.969,64.219,249.281S139.594,74.156,232.5,74.156S400.781,157.688,400.781,249.281z"/>
<path id="XMLID_83_" fill="#EF4660" d="M396.094,252.937c0,90.281-51.562,155.344-144.375,168.094
	c-92.062,12.656-192.188-77.812-192.188-168.094S134.906,80.156,227.812,79.219C337.031,78.094,396.094,162.562,396.094,252.937z"/>
<circle id="XMLID_82_" fill="#8DC63F" stroke="#414042" stroke-width="4" stroke-miterlimit="10" cx="250.031" cy="69.188" r="27.656"/>
<circle id="XMLID_76_" fill="#5B86BA" cx="231.188" cy="291.75" r="4.688"/>
<circle id="XMLID_75_" fill="#55D8D1" cx="254.719" cy="190.5" r="4.688"/>
<path id="XMLID_73_" fill="none" stroke="#414042" stroke-width="4" stroke-linecap="round" stroke-linejoin="round" stroke-miterlimit="10" d="
	M106.594,337.031c0,10.875,7.031,19.688,15.656,19.688"/>
<circle id="XMLID_72_" fill="#9FC45F" cx="149.625" cy="43.312" r="4.688"/>
<circle id="XMLID_71_" fill="#BC8526" cx="284.344" cy="38.625" r="4.688"/>
<circle id="XMLID_70_" fill="#5F98A0" cx="371.531" cy="86.25" r="4.688"/>
<circle id="XMLID_69_" fill="#4A4AD8" cx="351.188" cy="28.031" r="7.219"/>
<path id="XMLID_109_" fill="none" stroke="#414042" stroke-width="4" stroke-linecap="round" stroke-linejoin="round" stroke-miterlimit="10" d="
	M363.094,122.344c27.094-8.156,43.594-6.375,54.281,5.438C445.031,158.344,393,250.406,301.219,333.375
	S112.5,458.625,84.844,428.062c-12.469-13.875-13.781-29.531,2.625-61.969"/>
<circle id="XMLID_81_" fill="#C6B53C" stroke="#414042" stroke-width="4" stroke-miterlimit="10" cx="250.031" cy="372.844" r="30.469"/>
<line id="XMLID_74_" fill="none" stroke="#414042" stroke-width="4" stroke-linecap="round" stroke-linejoin="round" stroke-miterlimit="10" x1="282.844" y1="307.969" x2="364.594" y2="220.875"/>
<path id="XMLID_77_" fill="none" stroke="#414042" stroke-width="4" stroke-linecap="round" stroke-linejoin="round" stroke-miterlimit="10" d="
	M98.906,186.281C108,142.594,139.5,112.312,169.312,118.5"/>
</svg>
