<?xml version="1.0" encoding="utf-8"?>
<!-- Generator: Adobe Illustrator 17.0.2, SVG Export Plug-In . SVG Version: 6.00 Build 0)  -->
<!DOCTYPE svg PUBLIC "-//W3C//DTD SVG 1.1//EN" "http://www.w3.org/Graphics/SVG/1.1/DTD/svg11.dtd">
<svg version="1.1" id="Layer_1" xmlns="http://www.w3.org/2000/svg" xmlns:xlink="http://www.w3.org/1999/xlink" x="0px" y="0px"
	 width="480px" height="480px" viewBox="14.406 -73.647 480 480" enable-background="new 14.406 -73.647 480 480"
	 xml:space="preserve">
<circle id="XMLID_41_" fill="#448FAD" stroke="#414042" stroke-width="4" stroke-miterlimit="10" cx="257.282" cy="166.954" r="182.906"/>
<path id="XMLID_40_" fill="#AEDEEF" d="M429.313,169.111c0,91.125-50.719,156.75-141.938,169.688
	c-90.469,12.844-189-78.563-189-169.688S172.438-5.077,263.845-5.077S429.313,77.986,429.313,169.111z"/>
<path id="XMLID_39_" fill="#7ABDE5" d="M424.719,165.83c0,88.875-50.906,152.812-142.406,165.469
	c-90.75,12.469-189.562-76.594-189.562-165.469S167.095-4.233,258.782-5.077C366.501-6.202,424.719,76.954,424.719,165.83z"/>
<circle id="XMLID_37_" fill="#B72679" stroke="#414042" stroke-width="4" stroke-miterlimit="10" cx="299.751" cy="341.986" r="21.188"/>
<circle id="XMLID_32_" fill="#414042" cx="113.938" cy="-26.077" r="4.688"/>
<circle id="XMLID_31_" fill="#B2ED54" cx="250.063" cy="116.798" r="4.688"/>
<circle id="XMLID_30_" fill="#BC7C2F" cx="117.782" cy="237.548" r="10.594"/>
<circle id="XMLID_28_" fill="#176FA0" cx="325.345" cy="383.611" r="9.094"/>
<circle id="XMLID_27_" fill="#DBDB23" cx="271.345" cy="121.486" r="4.688"/>
<circle id="XMLID_26_" fill="#8B48D8" cx="254.751" cy="85.392" r="4.688"/>
<circle id="XMLID_25_" fill="#4343E8" cx="282.969" cy="90.08" r="16.312"/>
<path id="XMLID_24_" fill="none" stroke="#414042" stroke-width="4" stroke-linecap="round" stroke-linejoin="round" stroke-miterlimit="10" d="
	M273.407,304.392c7.406-5.25,16.5-8.25,26.25-8.25c25.312,0,45.844,20.531,45.844,45.844c0,9-2.625,17.438-7.125,24.562"/>
<circle id="XMLID_29_" fill="#E5CC61" stroke="#414042" stroke-width="4" stroke-miterlimit="10" cx="92.751" cy="11.798" r="21.187"/>
</svg>
