<?xml version="1.0" encoding="utf-8"?>
<!-- Generator: Adobe Illustrator 17.0.2, SVG Export Plug-In . SVG Version: 6.00 Build 0)  -->
<!DOCTYPE svg PUBLIC "-//W3C//DTD SVG 1.1//EN" "http://www.w3.org/Graphics/SVG/1.1/DTD/svg11.dtd">
<svg version="1.1" id="Layer_1" xmlns="http://www.w3.org/2000/svg" xmlns:xlink="http://www.w3.org/1999/xlink" x="0px" y="0px"
	 width="480px" height="480px" viewBox="0 0 480 480" enable-background="new 0 0 480 480" xml:space="preserve">
<circle id="XMLID_41_" fill="#448FAD" stroke="#414042" stroke-width="4" stroke-miterlimit="10" cx="241.875" cy="225.562" r="182.906"/>
<path id="XMLID_40_" fill="#AEDEEF" d="M413.906,227.719c0,91.125-50.719,156.75-141.938,169.688
	c-90.469,12.844-189-78.563-189-169.688S157.031,53.531,248.438,53.531S413.906,136.594,413.906,227.719z"/>
<path id="XMLID_39_" fill="#7ABDE5" d="M409.312,224.438c0,88.875-50.906,152.812-142.406,165.469
	c-90.75,12.469-189.562-76.594-189.562-165.469S151.688,54.375,243.375,53.531C351.094,52.406,409.312,135.562,409.312,224.438z"/>
<circle id="XMLID_37_" fill="#B72679" stroke="#414042" stroke-width="4" stroke-miterlimit="10" cx="284.344" cy="400.594" r="21.188"/>
<circle id="XMLID_32_" fill="#414042" cx="98.531" cy="32.531" r="4.688"/>
<circle id="XMLID_31_" fill="#B2ED54" cx="234.656" cy="175.406" r="4.688"/>
<circle id="XMLID_30_" fill="#BC7C2F" cx="102.375" cy="296.156" r="10.594"/>
<circle id="XMLID_28_" fill="#176FA0" cx="309.938" cy="442.219" r="9.094"/>
<circle id="XMLID_27_" fill="#DBDB23" cx="255.938" cy="180.094" r="4.688"/>
<circle id="XMLID_26_" fill="#8B48D8" cx="239.344" cy="144" r="4.688"/>
<circle id="XMLID_25_" fill="#4343E8" cx="267.562" cy="148.688" r="16.312"/>
<path id="XMLID_24_" fill="none" stroke="#414042" stroke-width="4" stroke-linecap="round" stroke-linejoin="round" stroke-miterlimit="10" d="
	M258,363c7.406-5.25,16.5-8.25,26.25-8.25c25.312,0,45.844,20.531,45.844,45.844c0,9-2.625,17.438-7.125,24.562"/>
<circle id="XMLID_29_" fill="#E5CC61" stroke="#414042" stroke-width="4" stroke-miterlimit="10" cx="77.344" cy="70.406" r="21.187"/>
</svg>
