<?xml version="1.0" encoding="utf-8"?>
<!-- Generator: Adobe Illustrator 17.0.2, SVG Export Plug-In . SVG Version: 6.00 Build 0)  -->
<!DOCTYPE svg PUBLIC "-//W3C//DTD SVG 1.1//EN" "http://www.w3.org/Graphics/SVG/1.1/DTD/svg11.dtd">
<svg version="1.1" id="Layer_1" xmlns="http://www.w3.org/2000/svg" xmlns:xlink="http://www.w3.org/1999/xlink" x="0px" y="0px"
	 width="480px" height="480px" viewBox="0 0 480 480" enable-background="new 0 0 480 480" xml:space="preserve">
<circle id="XMLID_129_" fill="#B2AD4F" stroke="#414042" stroke-width="4" stroke-miterlimit="10" cx="256.875" cy="251.719" r="182.906"/>
<path id="XMLID_128_" fill="#E5E288" d="M430.781,255.562c0,90.281-51.562,155.344-144.375,168.094
	c-92.062,12.656-192.188-77.812-192.188-168.094S169.594,82.969,262.5,82.969S430.781,165.281,430.781,255.562z"/>
<path id="XMLID_127_" fill="#CCCA93" d="M426.094,255.844c0,89.906-51.562,154.594-144.375,167.344
	C189.656,435.844,89.531,345.75,89.531,255.844S164.906,83.812,257.812,82.969C367.031,81.844,426.094,165.938,426.094,255.844z"/>
<circle id="XMLID_126_" fill="#8DC63F" stroke="#414042" stroke-width="4" stroke-miterlimit="10" cx="341.531" cy="96.562" r="37.781"/>
<circle id="XMLID_125_" fill="#BC4BBC" stroke="#414042" stroke-width="4" stroke-miterlimit="10" cx="299.344" cy="426.75" r="21.188"/>
<line id="XMLID_124_" fill="none" stroke="#414042" stroke-width="4" stroke-linecap="round" stroke-miterlimit="10" x1="63.563" y1="94.688" x2="159.562" y2="94.688"/>
<line id="XMLID_123_" fill="none" stroke="#414042" stroke-width="4" stroke-linecap="round" stroke-miterlimit="10" x1="64.594" y1="134.344" x2="115.594" y2="134.344"/>
<line id="XMLID_121_" fill="none" stroke="#414042" stroke-width="4" stroke-linecap="round" stroke-miterlimit="10" x1="265.594" y1="333" x2="423.938" y2="333"/>
<circle id="XMLID_120_" fill="#57D0D3" cx="259.312" cy="295.5" r="4.688"/>
<circle id="XMLID_119_" fill="#F2A470" cx="282.844" cy="194.25" r="4.688"/>
<circle id="XMLID_118_" fill="#4F3FE8" cx="299.344" cy="260.438" r="10.594"/>
<path id="XMLID_117_" fill="none" stroke="#414042" stroke-width="4" stroke-linecap="round" stroke-linejoin="round" stroke-miterlimit="10" d="
	M134.719,340.781c0,10.875,7.031,19.688,15.656,19.688"/>
<circle id="XMLID_116_" fill="#A2CC71" cx="177.75" cy="47.062" r="4.688"/>
<circle id="XMLID_115_" fill="#5C8999" cx="312.469" cy="42.375" r="4.688"/>
<circle id="XMLID_114_" fill="#EAE360" cx="394.969" cy="113.625" r="4.688"/>
<circle id="XMLID_113_" fill="#3B61DB" cx="379.312" cy="31.781" r="7.219"/>
<line id="XMLID_65_" fill="none" stroke="#414042" stroke-width="4" stroke-linecap="round" stroke-miterlimit="10" x1="40.594" y1="174.938" x2="90.094" y2="174.938"/>
</svg>
