<?xml version="1.0" encoding="utf-8"?>
<!-- Generator: Adobe Illustrator 17.0.2, SVG Export Plug-In . SVG Version: 6.00 Build 0)  -->
<!DOCTYPE svg PUBLIC "-//W3C//DTD SVG 1.1//EN" "http://www.w3.org/Graphics/SVG/1.1/DTD/svg11.dtd">
<svg version="1.1" id="Layer_1" xmlns="http://www.w3.org/2000/svg" xmlns:xlink="http://www.w3.org/1999/xlink" x="0px" y="0px"
	 width="480px" height="480px" viewBox="0 0 480 480" enable-background="new 0 0 480 480" xml:space="preserve">
<circle id="XMLID_2_" fill="#50ABC4" stroke="#414042" stroke-width="4" stroke-miterlimit="10" cx="240.75" cy="251.812" r="182.906"/>
<path id="XMLID_21_" fill="#AEDEEF" d="M412.781,248.906c0,89.906-50.719,154.594-141.938,167.344
	c-90.469,12.656-189-77.438-189-167.344s74.062-171.75,165.469-171.75S412.781,159,412.781,248.906z"/>
<path id="XMLID_20_" fill="#5FC7E6" d="M403.5,252.469c0,91.219-50.156,156.844-140.438,169.781
	c-89.531,12.844-186.938-78.563-186.938-169.781S149.531,78,239.906,77.062C346.125,76.031,403.5,161.344,403.5,252.469z"/>
<circle id="XMLID_6_" fill="#8B37B7" stroke="#414042" stroke-width="4" stroke-miterlimit="10" cx="325.406" cy="96.656" r="37.781"/>
<circle id="XMLID_7_" fill="#FBEC7D" stroke="#414042" stroke-width="4" stroke-miterlimit="10" cx="283.219" cy="426.844" r="21.188"/>
<g id="XMLID_8_">
	<line fill="none" x1="82.531" y1="170.5" x2="285.969" y2="170.5"/>
	<path fill="#F5F5F5" d="M82.531,168.5c0,0,0.199-0.19,0.584-0.558c0.385-0.353,0.956-0.862,1.701-1.467
		c1.49-1.214,3.675-2.825,6.457-4.496c2.781-1.692,6.159-3.409,10.033-4.899c3.874-1.505,8.245-2.761,13.013-3.592
		c2.384-0.429,4.867-0.709,7.438-0.893c2.57-0.22,5.227-0.187,7.959,0.32c2.732,0.467,5.538,1.402,8.406,2.66
		c2.868,1.272,5.799,2.833,8.779,4.295c2.98,1.457,6.01,2.782,9.077,3.576c3.067,0.828,6.171,1.152,9.3,1.029
		c3.129-0.11,6.283-0.558,9.449-1.427c3.166-0.854,6.345-2.116,9.524-3.498c3.179-1.384,6.357-2.841,9.524-4.035
		c3.166-1.208,6.32-2.13,9.449-2.759c3.129-0.56,6.233-1.116,9.3-1.665c3.067-0.554,6.097-1.08,9.077-1.465
		c2.98-0.379,5.91-0.631,8.779-0.649c2.868-0.022,5.674,0.152,8.406,0.484c5.463,0.682,10.629,1.83,15.397,3.181
		c9.536,2.713,17.483,6.483,23.046,9.787c2.781,1.645,4.967,3.141,6.457,4.26c0.745,0.576,1.316,1.018,1.701,1.316
		c0.385,0.325,0.584,0.493,0.584,0.493c1.105,0.932,1.244,2.584,0.312,3.688c-0.093,0.111-0.205,0.221-0.312,0.312
		c0,0-0.199,0.168-0.584,0.493c-0.385,0.298-0.956,0.74-1.701,1.316c-1.49,1.12-3.675,2.615-6.457,4.26
		c-5.563,3.305-13.51,7.074-23.046,9.787c-4.768,1.351-9.933,2.499-15.397,3.181c-2.732,0.333-5.538,0.507-8.406,0.484
		c-2.868-0.018-5.799-0.27-8.779-0.649c-2.98-0.385-6.01-0.911-9.077-1.465c-3.067-0.549-6.171-1.105-9.3-1.665
		c-3.129-0.629-6.283-1.551-9.449-2.759c-3.166-1.194-6.345-2.651-9.524-4.035c-3.179-1.382-6.357-2.644-9.524-3.498
		c-3.166-0.869-6.32-1.317-9.449-1.427c-3.129-0.123-6.233,0.201-9.3,1.029c-3.067,0.794-6.097,2.119-9.077,3.576
		c-2.98,1.462-5.91,3.023-8.779,4.295c-2.868,1.258-5.674,2.193-8.406,2.66c-2.732,0.507-5.389,0.539-7.959,0.32
		c-2.57-0.184-5.054-0.463-7.438-0.893c-4.768-0.831-9.139-2.087-13.013-3.592c-3.874-1.49-7.251-3.207-10.033-4.899
		c-2.781-1.671-4.967-3.283-6.457-4.496c-0.745-0.605-1.316-1.114-1.701-1.467c-0.385-0.368-0.584-0.558-0.584-0.558
		c-1.105-1.056-1.144-2.807-0.089-3.911C82.469,168.561,82.504,168.526,82.531,168.5z"/>
</g>
<g id="XMLID_9_">
	<path fill="#F5F5F5" d="M232.859,232.5c0,0,0.104-0.095,0.305-0.279c0.201-0.165,0.499-0.41,0.888-0.729
		c0.778-0.615,1.919-1.415,3.371-2.252c2.904-1.688,7.054-3.429,12.033-4.246c1.245-0.215,2.541-0.354,3.883-0.446
		c1.342-0.102,2.729-0.094,4.156,0.16c1.426,0.236,2.891,0.695,4.389,1.336c1.498,0.652,3.028,1.401,4.584,2.136
		s3.138,1.389,4.739,1.794c1.601,0.417,3.222,0.567,4.856,0.514c1.634-0.055,3.28-0.279,4.934-0.714
		c1.653-0.43,3.313-1.056,4.973-1.749c1.66-0.692,3.319-1.421,4.973-2.017c1.653-0.603,3.3-1.064,4.934-1.379
		c3.267-0.555,6.483-1.149,9.595-1.565c3.112-0.399,6.12-0.426,8.973-0.079c2.853,0.334,5.55,0.913,8.039,1.587
		c4.979,1.379,9.128,3.227,12.033,4.894c1.452,0.814,2.593,1.599,3.371,2.13c0.778,0.561,1.193,0.904,1.193,0.904
		c0.552,0.457,0.63,1.275,0.173,1.827c-0.051,0.062-0.113,0.123-0.173,0.173c0,0-0.415,0.343-1.193,0.904
		c-0.778,0.531-1.919,1.316-3.371,2.13c-2.904,1.666-7.054,3.514-12.033,4.894c-2.49,0.674-5.186,1.253-8.039,1.587
		c-2.853,0.347-5.861,0.321-8.973-0.079c-3.112-0.415-6.327-1.01-9.595-1.565c-1.634-0.316-3.28-0.777-4.934-1.379
		c-1.653-0.597-3.313-1.325-4.973-2.017c-1.66-0.693-3.319-1.319-4.973-1.749c-1.653-0.435-3.3-0.659-4.934-0.714
		c-1.634-0.053-3.255,0.097-4.856,0.514c-1.601,0.404-3.183,1.059-4.739,1.794s-3.086,1.484-4.584,2.136
		c-1.498,0.64-2.963,1.1-4.389,1.336c-1.426,0.254-2.814,0.262-4.156,0.16c-1.342-0.092-2.639-0.232-3.883-0.446
		c-4.979-0.817-9.128-2.557-12.033-4.246c-1.452-0.837-2.593-1.637-3.371-2.252c-0.389-0.319-0.687-0.564-0.888-0.729
		c-0.201-0.184-0.305-0.279-0.305-0.279c-0.552-0.505-0.59-1.363-0.085-1.915C232.801,232.556,232.831,232.526,232.859,232.5z"/>
</g>
<g id="XMLID_10_">
	<path fill="#F5F5F5" d="M69.781,292.5c0,0,0.224-0.285,0.657-0.837c0.433-0.495,1.076-1.229,1.914-2.187
		c1.677-1.846,4.136-4.245,7.266-6.757c3.13-2.538,6.931-5.113,11.29-7.348c4.36-2.26,9.278-4.137,14.644-5.394
		c2.683-0.627,5.478-1.076,8.37-1.346c2.892-0.31,5.883-0.262,8.957,0.481c3.074,0.722,6.232,2.11,9.46,4.001
		c3.228,1.908,6.525,4.249,9.879,6.443c0.838,0.552,1.68,1.098,2.525,1.588c0.845,0.508,1.694,1.027,2.545,1.473
		c1.703,0.912,3.418,1.693,5.144,2.303c3.451,1.248,6.945,1.723,10.466,1.545c3.521-0.15,7.07-0.85,10.634-2.143
		c3.563-1.279,7.14-3.172,10.717-5.248c3.577-2.077,7.154-4.26,10.717-6.054c3.563-1.81,7.112-3.193,10.634-4.136
		c3.521-0.84,7.015-1.674,10.466-2.497c3.451-0.831,6.861-1.619,10.214-2.197c6.707-1.235,13.191-1.268,19.339-0.246
		c3.074,0.487,6.064,1.193,8.957,2.013c2.892,0.82,5.687,1.721,8.37,2.758c5.366,2.045,10.284,4.451,14.644,7.001
		c4.36,2.534,8.16,5.209,11.29,7.679c3.13,2.468,5.589,4.711,7.266,6.391c0.838,0.865,1.481,1.528,1.914,1.974
		c0.433,0.487,0.657,0.739,0.657,0.739c1.538,1.73,1.503,4.313,0,6c0,0-0.224,0.252-0.657,0.739
		c-0.433,0.447-1.076,1.11-1.914,1.974c-1.677,1.68-4.136,3.923-7.266,6.391c-3.13,2.47-6.931,5.145-11.29,7.679
		c-4.36,2.551-9.278,4.956-14.644,7.001c-2.683,1.037-5.478,1.938-8.37,2.758s-5.883,1.526-8.957,2.013
		c-6.148,1.021-12.632,0.989-19.339-0.246c-3.354-0.578-6.763-1.366-10.214-2.197c-3.451-0.823-6.945-1.657-10.466-2.497
		c-3.521-0.943-7.07-2.326-10.634-4.136c-3.563-1.795-7.14-3.977-10.717-6.054c-3.577-2.075-7.154-3.968-10.717-5.248
		c-3.563-1.293-7.112-1.993-10.634-2.143c-3.521-0.178-7.015,0.297-10.466,1.545c-1.726,0.61-3.441,1.39-5.144,2.303
		c-0.851,0.446-1.7,0.965-2.545,1.473c-0.845,0.49-1.687,1.035-2.525,1.588c-3.354,2.193-6.651,4.535-9.879,6.443
		c-3.228,1.891-6.386,3.279-9.46,4.001c-3.074,0.744-6.064,0.791-8.957,0.481c-2.892-0.27-5.687-0.718-8.37-1.346
		c-5.366-1.257-10.284-3.134-14.644-5.394c-4.36-2.235-8.16-4.81-11.29-7.348c-3.13-2.512-5.589-4.911-7.266-6.757
		c-0.838-0.958-1.481-1.692-1.914-2.187c-0.433-0.552-0.657-0.837-0.657-0.837C68.371,296.703,68.431,294.22,69.781,292.5z"/>
</g>
<g id="XMLID_11_">
	<path fill="#F5F5F5" d="M156.938,358.562c0,0,0.199-0.19,0.584-0.558c0.385-0.353,0.956-0.862,1.701-1.467
		c1.49-1.214,3.675-2.825,6.457-4.496c2.781-1.692,6.159-3.409,10.033-4.899c3.874-1.505,8.245-2.761,13.013-3.592
		c2.384-0.429,4.867-0.709,7.438-0.893c2.57-0.22,5.227-0.187,7.959,0.32c2.732,0.467,5.538,1.402,8.406,2.66
		c2.868,1.272,5.799,2.833,8.779,4.295c2.98,1.457,6.01,2.782,9.077,3.576c3.067,0.828,6.171,1.152,9.3,1.029
		c3.129-0.11,6.283-0.558,9.449-1.427c3.166-0.854,6.345-2.116,9.524-3.498c3.179-1.384,6.357-2.841,9.524-4.035
		c3.166-1.208,6.32-2.13,9.449-2.759c3.129-0.56,6.233-1.116,9.3-1.665c3.067-0.554,6.097-1.08,9.077-1.465
		c2.98-0.379,5.91-0.631,8.779-0.649c2.868-0.022,5.674,0.152,8.406,0.484c5.463,0.682,10.629,1.83,15.397,3.181
		c9.536,2.713,17.483,6.483,23.046,9.787c2.781,1.645,4.967,3.141,6.457,4.26c0.745,0.576,1.316,1.018,1.701,1.316
		c0.385,0.325,0.584,0.493,0.584,0.493c1.105,0.932,1.244,2.584,0.312,3.688c-0.093,0.111-0.205,0.221-0.312,0.312
		c0,0-0.199,0.168-0.584,0.493c-0.385,0.298-0.956,0.74-1.701,1.316c-1.49,1.12-3.675,2.615-6.457,4.26
		c-5.563,3.305-13.51,7.074-23.046,9.787c-4.768,1.351-9.933,2.499-15.397,3.181c-2.732,0.333-5.538,0.507-8.406,0.484
		c-2.868-0.018-5.799-0.27-8.779-0.649c-2.98-0.385-6.01-0.911-9.077-1.465c-3.067-0.549-6.171-1.105-9.3-1.665
		c-3.129-0.629-6.283-1.551-9.449-2.759c-3.166-1.194-6.345-2.651-9.524-4.035c-3.179-1.382-6.357-2.644-9.524-3.498
		c-3.166-0.869-6.32-1.317-9.449-1.427c-3.129-0.123-6.233,0.201-9.3,1.029c-3.067,0.794-6.097,2.119-9.077,3.576
		c-2.98,1.462-5.91,3.023-8.779,4.295c-2.868,1.258-5.674,2.193-8.406,2.66c-2.732,0.507-5.389,0.539-7.959,0.32
		c-2.57-0.184-5.054-0.463-7.438-0.893c-4.768-0.831-9.139-2.087-13.013-3.592c-3.874-1.49-7.251-3.207-10.033-4.899
		c-2.781-1.671-4.967-3.283-6.457-4.496c-0.745-0.605-1.316-1.114-1.701-1.467c-0.385-0.368-0.584-0.558-0.584-0.558
		c-1.105-1.056-1.144-2.807-0.089-3.911C156.876,358.623,156.91,358.589,156.938,358.562z"/>
</g>
<circle id="XMLID_12_" fill="#E2E229" cx="119.281" cy="443.625" r="8.906"/>
<circle id="XMLID_13_" fill="#BFA525" cx="89.188" cy="392.25" r="7.406"/>
<circle id="XMLID_14_" fill="#277ACC" cx="99.781" cy="128.906" r="10.594"/>
<path id="XMLID_15_" fill="none" stroke="#414042" stroke-width="4" stroke-linecap="round" stroke-linejoin="round" stroke-miterlimit="10" d="
	M68.297,389.812c0,10.875,7.031,19.688,15.656,19.688"/>
<circle id="XMLID_16_" fill="#7526D1" cx="161.625" cy="47.062" r="4.688"/>
<circle id="XMLID_17_" fill="#E8E8C8" cx="296.344" cy="42.375" r="4.688"/>
<circle id="XMLID_18_" fill="#414042" cx="378.844" cy="113.625" r="4.688"/>
<circle id="XMLID_19_" fill="#6FA3E2" cx="363.188" cy="31.781" r="7.219"/>
</svg>
