<?xml version="1.0" encoding="utf-8"?>
<!-- Generator: Adobe Illustrator 17.0.2, SVG Export Plug-In . SVG Version: 6.00 Build 0)  -->
<!DOCTYPE svg PUBLIC "-//W3C//DTD SVG 1.1//EN" "http://www.w3.org/Graphics/SVG/1.1/DTD/svg11.dtd">
<svg version="1.1" id="Layer_1" xmlns="http://www.w3.org/2000/svg" xmlns:xlink="http://www.w3.org/1999/xlink" x="0px" y="0px"
	 width="480px" height="480px" viewBox="0 0 480 480" enable-background="new 0 0 480 480" xml:space="preserve">
<circle id="XMLID_173_" fill="#B9D4DB" stroke="#414042" stroke-width="4" stroke-miterlimit="10" cx="269.438" cy="247.031" r="182.906"/>
<path id="XMLID_172_" fill="#AEDEEF" d="M433.688,245.906c0,92.906-49.5,159.844-138.656,173.063
	C206.625,432,110.438,338.906,110.438,245.906S182.812,68.25,272.156,68.25S433.688,153,433.688,245.906z"/>
<path id="XMLID_171_" fill="#E4F5FD" d="M433.688,244.125c0,91.406-50.344,157.219-141.094,170.25
	c-89.906,12.844-187.781-78.75-187.781-170.25S178.5,69.188,269.344,68.25C376.031,67.219,433.688,152.719,433.688,244.125z"/>
<circle id="XMLID_169_" fill="#7D99B2" stroke="#414042" stroke-width="4" stroke-miterlimit="10" cx="245.719" cy="336.094" r="21.188"/>
<circle id="XMLID_164_" fill="#C67A36" cx="147.188" cy="281.438" r="4.688"/>
<circle id="XMLID_163_" fill="#C6C64E" cx="295.406" cy="189.562" r="4.688"/>
<circle id="XMLID_162_" fill="#47BAC9" cx="185.625" cy="197.156" r="10.594"/>
<path id="XMLID_161_" fill="none" stroke="#414042" stroke-width="4" stroke-linecap="round" stroke-linejoin="round" stroke-miterlimit="10" d="
	M147.188,336.094c0,10.875,7.031,19.688,15.656,19.688"/>
<circle id="XMLID_159_" fill="#9F8EB2" cx="324.938" cy="37.688" r="4.688"/>
<circle id="XMLID_157_" fill="#A8C66D" cx="162.844" cy="54.094" r="8.531"/>
<circle id="XMLID_165_" fill="#5252DD" stroke="#414042" stroke-width="4" stroke-miterlimit="10" cx="272.156" cy="336.094" r="21.188"/>
<path id="XMLID_166_" fill="none" stroke="#414042" stroke-width="4" stroke-linecap="round" stroke-linejoin="round" stroke-miterlimit="10" d="
	M135.281,448.875C71.156,403.5,29.344,328.687,29.344,244.219c0-71.438,29.906-135.938,77.906-181.594"/>
<circle id="XMLID_170_" fill="#BE1E2D" stroke="#414042" stroke-width="4" stroke-miterlimit="10" cx="110.531" cy="54.094" r="24.188"/>
<circle id="XMLID_22_" fill="#F9ED32" stroke="#414042" stroke-width="4" stroke-miterlimit="10" cx="412.594" cy="64.125" r="21.187"/>
</svg>
