<?xml version="1.0" encoding="utf-8"?>
<!-- Generator: Adobe Illustrator 17.0.2, SVG Export Plug-In . SVG Version: 6.00 Build 0)  -->
<!DOCTYPE svg PUBLIC "-//W3C//DTD SVG 1.1//EN" "http://www.w3.org/Graphics/SVG/1.1/DTD/svg11.dtd">
<svg version="1.1" id="Layer_1" xmlns="http://www.w3.org/2000/svg" xmlns:xlink="http://www.w3.org/1999/xlink" x="0px" y="0px"
	 width="480px" height="480px" viewBox="0 0 480 480" enable-background="new 0 0 480 480" xml:space="preserve">
<circle id="XMLID_217_" fill="#E8D55F" stroke="#414042" stroke-width="4" stroke-miterlimit="10" cx="246" cy="249.938" r="182.906"/>
<path id="XMLID_216_" fill="#F9F5B8" d="M418.031,251.25c0,87.281-50.719,150.094-141.938,162.469
	c-90.562,12.375-189-75.188-189-162.469S161.156,84.375,252.562,84.375S418.031,163.969,418.031,251.25z"/>
<path id="XMLID_215_" fill="#FBEC7D" d="M412.219,251.062c0,92.25-50.719,158.719-141.937,171.844
	c-90.375,13.031-188.813-79.5-188.813-171.844S155.531,74.437,246.844,73.5C354.188,72.469,412.219,158.812,412.219,251.062z"/>
<circle id="XMLID_214_" fill="#5FC5E5" stroke="#414042" stroke-width="4" stroke-miterlimit="10" cx="379.312" cy="67.031" r="24.937"/>
<circle id="XMLID_208_" fill="#414042" cx="248.438" cy="293.625" r="4.688"/>
<circle id="XMLID_207_" fill="#414042" cx="271.969" cy="192.375" r="4.688"/>
<circle id="XMLID_206_" fill="#4747EA" cx="162.188" cy="446.062" r="10.594"/>
<path id="XMLID_205_" fill="none" stroke="#414042" stroke-width="4" stroke-linecap="round" stroke-linejoin="round" stroke-miterlimit="10" d="
	M362.156,149.344c-4.5-12.844-15.844-20.625-25.5-17.25"/>
<circle id="XMLID_204_" fill="#E8904D" cx="166.875" cy="45.188" r="4.688"/>
<circle id="XMLID_203_" fill="#A1C15B" cx="301.5" cy="40.5" r="4.688"/>
<circle id="XMLID_202_" fill="#A58A19" cx="384" cy="111.75" r="4.688"/>
<circle id="XMLID_201_" fill="#476F89" cx="368.344" cy="29.906" r="7.219"/>
<path id="XMLID_1_" fill="none" stroke="#414042" stroke-width="4" stroke-miterlimit="10" d="M428.812,274.312
	c18.938,21.094,27,40.594,20.906,55.312c-15.938,38.062-121.406,30-235.406-17.812S20.625,194.25,36.656,156.281
	c7.219-17.25,32.719-25.031,69.094-23.906"/>
<circle id="XMLID_213_" fill="#D1384A" stroke="#414042" stroke-width="4" stroke-miterlimit="10" cx="214.219" cy="311.812" r="21.188"/>
</svg>
